<mxfile host="drawio-plugin" agent="Mozilla/5.0 (Windows NT 10.0; Win64; x64) AppleWebKit/537.36 (KHTML, like Gecko) Chrome/122.0.0.0 Safari/537.36" modified="2024-08-31T18:01:27.591Z" etag="yNoklE-jFd1nuOGCV6P6" version="22.1.22" type="embed">
  <diagram name="Page-1" id="a98_UPNlmupP_jTm19mI">
    <mxGraphModel dx="707" dy="1112" grid="0" gridSize="10" guides="1" tooltips="1" connect="1" arrows="1" fold="1" page="0" pageScale="1" pageWidth="827" pageHeight="1169" math="0" shadow="0">
      <root>
        <mxCell id="0" />
        <mxCell id="1" parent="0" />
        <mxCell id="oWYcPr78jMC2Y4sFl2ww-2" style="edgeStyle=none;curved=1;rounded=0;orthogonalLoop=1;jettySize=auto;html=1;exitX=0.5;exitY=1;exitDx=0;exitDy=0;fontSize=12;startSize=8;endSize=8;" parent="1" source="oWYcPr78jMC2Y4sFl2ww-1" edge="1">
          <mxGeometry relative="1" as="geometry">
            <mxPoint x="168" y="165" as="targetPoint" />
          </mxGeometry>
        </mxCell>
        <mxCell id="oWYcPr78jMC2Y4sFl2ww-1" value="start" style="rounded=1;whiteSpace=wrap;html=1;" parent="1" vertex="1">
          <mxGeometry x="108" y="-13" width="120" height="54" as="geometry" />
        </mxCell>
        <mxCell id="oWYcPr78jMC2Y4sFl2ww-3" value="stop" style="rounded=1;whiteSpace=wrap;html=1;" parent="1" vertex="1">
          <mxGeometry x="108" y="167" width="120" height="60" as="geometry" />
        </mxCell>
      </root>
    </mxGraphModel>
  </diagram>
</mxfile>
